<svg width="18" height="18" viewBox="0 0 18 18" fill="none" xmlns="http://www.w3.org/2000/svg">
<g clip-path="url(#clip0_8_1292)">
<path d="M7.55771 13.6241C7.64074 13.7404 7.75021 13.8352 7.87703 13.9005C8.00385 13.9659 8.14437 14 8.28695 14C8.42952 14 8.57004 13.9659 8.69687 13.9005C8.82369 13.8352 8.93315 13.7404 9.01619 13.6241L14.9573 5.35946C15.0645 5.20945 14.9573 5 14.774 5H13.4509C13.1631 5 12.8895 5.13869 12.7202 5.37644L8.28836 11.5467L6.27977 8.75024L5.97177 8.37381H5.54912H4.22604C4.04267 8.37381 3.93547 8.58325 4.04267 8.73326L7.55771 13.6241Z" fill="#30C5FF"/>
<path d="M17.28 0H0.72H0V0.72V17.28V18H0.72H17.28H18V17.28V0.72V0H17.28ZM16.38 16.38H1.62V1.62H16.38V16.38Z" fill="#30C5FF"/>
</g>
<defs>
<clipPath id="clip0_8_1292">
<rect width="18" height="18" fill="white"/>
</clipPath>
</defs>
</svg>
