<svg width="14" height="22" viewBox="0 0 14 22" fill="none" xmlns="http://www.w3.org/2000/svg">
<path d="M1 8.787C0.999999 8.59958 1.05267 8.41593 1.152 8.257L3.5 4.5H10.5L12.848 8.257C12.9473 8.41593 13 8.59958 13 8.787V20C13 20.2652 12.8946 20.5196 12.7071 20.7071C12.5196 20.8946 12.2652 21 12 21H2C1.73478 21 1.48043 20.8946 1.29289 20.7071C1.10536 20.5196 1 20.2652 1 20V8.787Z" stroke="#FFBC42" stroke-width="2" stroke-linecap="round" stroke-linejoin="round"/>
<path d="M4.5 15.5V11L7 14L9.5 11V15.5H4.5ZM3.5 1H10.5V4.5H3.5V1Z" stroke="#FFBC42" stroke-width="2" stroke-linecap="round" stroke-linejoin="round"/>
</svg>
