<svg width="18" height="18" viewBox="0 0 18 18" fill="none" xmlns="http://www.w3.org/2000/svg">
<path d="M14 16V7.311L14.999 6.734C15.3036 6.55858 15.5566 6.30589 15.7324 6.00143C15.9081 5.69698 16.0004 5.35154 16 5V4C16 3.46957 15.7893 2.96086 15.4142 2.58579C15.0391 2.21071 14.5304 2 14 2H4C3.46957 2 2.96086 2.21071 2.58579 2.58579C2.21071 2.96086 2 3.46957 2 4V5C2 5.723 2.386 6.377 3.001 6.734L4 7.31V16H14ZM16 16C16 16.5304 15.7893 17.0391 15.4142 17.4142C15.0391 17.7893 14.5304 18 14 18H4C3.46957 18 2.96086 17.7893 2.58579 17.4142C2.21071 17.0391 2 16.5304 2 16V8.465C1.39166 8.11401 0.886507 7.60895 0.535406 7.00066C0.184304 6.39238 -0.000360124 5.70234 5.27254e-07 5V4C5.27254e-07 2.93913 0.421428 1.92172 1.17157 1.17157C1.92172 0.421427 2.93913 0 4 0H14C15.0609 0 16.0783 0.421427 16.8284 1.17157C17.5786 1.92172 18 2.93913 18 4V5C18 6.48 17.196 7.773 16 8.465V16Z" fill="#FFBC42"/>
</svg>
