<svg width="18" height="16" viewBox="0 0 18 16" fill="transparent" xmlns="http://www.w3.org/2000/svg">
  <path
    d="M8.35191 1.44329C8.5759 0.85252 9.42357 0.85252 9.64826 1.44329L11.0972 5.45692C11.1477 5.58766 11.2368 5.7 11.3525 5.77911C11.4682 5.85821 11.6052 5.90037 11.7454 5.9H15.3061C15.9641 5.9 16.2511 6.71896 15.7338 7.12004L13.1999 9.39984C13.0864 9.4871 13.0034 9.60806 12.963 9.74539C12.9225 9.88271 12.9265 10.0293 12.9745 10.1642L13.8999 14.0861C14.1253 14.7161 13.3959 15.2572 12.8443 14.8694L9.40257 12.6855C9.2847 12.6027 9.14415 12.5582 9.00008 12.5582C8.85602 12.5582 8.71547 12.6027 8.5976 12.6855L5.15586 14.8694C4.60498 15.2572 3.87491 14.7154 4.1003 14.0861L5.02566 10.1642C5.07366 10.0293 5.07771 9.88271 5.03722 9.74539C4.99672 9.60806 4.91378 9.4871 4.80027 9.39984L2.26638 7.12004C1.74841 6.71896 2.03679 5.9 2.69336 5.9H6.25411C6.3943 5.90046 6.53134 5.85835 6.64708 5.77923C6.76282 5.70011 6.85181 5.58772 6.90228 5.45692L8.35121 1.44329H8.35191Z"
    stroke="#FFBC42" stroke-width="2" stroke-linecap="round" stroke-linejoin="round" />
</svg>