<svg width="150" height="149" viewBox="0 0 150 149" fill="none" xmlns="http://www.w3.org/2000/svg">
<path d="M140 47C139.705 64.6931 100.061 87.7143 89.9659 94.5C79.8705 101.286 39.8824 128.224 39.8824 135.066C39.8824 141.909 39.8824 142 39.8824 142H10.0656C10.0656 142 10.0656 142 10.0001 135.066C9.93459 128.132 51.2105 101.286 60.5814 94.5C69.9523 87.7143 110.109 64.6931 110.109 47H140Z" fill="white"/>
<path d="M140 47L141.5 47.025C141.507 46.6229 141.351 46.235 141.069 45.9482C140.787 45.6615 140.402 45.5 140 45.5V47ZM39.8824 142V143.5C40.7108 143.5 41.3824 142.828 41.3824 142H39.8824ZM10.0656 142L8.63415 142.448C8.83016 143.074 9.40987 143.5 10.0656 143.5V142ZM110.109 47V45.5C109.281 45.5 108.609 46.1716 108.609 47H110.109ZM138.5 46.975C138.435 50.8802 136.17 55.3046 132.32 59.9781C128.502 64.6115 123.297 69.2836 117.731 73.6612C106.578 82.4315 94.2704 89.7994 89.1292 93.2551L90.8027 95.7449C95.757 92.4149 108.319 84.8793 119.585 76.0194C125.228 71.5818 130.621 66.7571 134.635 61.8858C138.616 57.0545 141.417 51.9664 141.5 47.025L138.5 46.975ZM89.1292 93.2551C84.0819 96.6476 71.532 105.098 60.2388 113.561C54.5966 117.79 49.2352 122.046 45.2727 125.691C43.2952 127.51 41.6285 129.211 40.4447 130.705C39.853 131.452 39.3553 132.18 38.9997 132.872C38.6538 133.545 38.3824 134.299 38.3824 135.066H41.3824C41.3824 134.978 41.4234 134.719 41.6681 134.243C41.9032 133.786 42.2746 133.226 42.796 132.569C43.8385 131.253 45.3747 129.674 47.3038 127.899C51.1546 124.357 56.4211 120.172 62.0379 115.962C73.2627 107.55 85.7545 99.1381 90.8027 95.7449L89.1292 93.2551ZM38.3824 135.066C38.3824 135.08 38.3824 135.093 38.3824 135.106C38.3824 135.12 38.3824 135.133 38.3824 135.146C38.3824 135.159 38.3824 135.173 38.3824 135.186C38.3824 135.199 38.3824 135.212 38.3824 135.225C38.3824 135.239 38.3824 135.252 38.3824 135.265C38.3824 135.278 38.3824 135.291 38.3824 135.304C38.3824 135.317 38.3824 135.33 38.3824 135.343C38.3824 135.356 38.3824 135.369 38.3824 135.382C38.3824 135.395 38.3824 135.408 38.3824 135.421C38.3824 135.434 38.3824 135.447 38.3824 135.459C38.3824 135.472 38.3824 135.485 38.3824 135.498C38.3824 135.511 38.3824 135.524 38.3824 135.536C38.3824 135.549 38.3824 135.562 38.3824 135.575C38.3824 135.587 38.3824 135.6 38.3824 135.613C38.3824 135.625 38.3824 135.638 38.3824 135.65C38.3824 135.663 38.3824 135.676 38.3824 135.688C38.3824 135.701 38.3824 135.713 38.3824 135.726C38.3824 135.738 38.3824 135.751 38.3824 135.763C38.3824 135.776 38.3824 135.788 38.3824 135.8C38.3824 135.813 38.3824 135.825 38.3824 135.838C38.3824 135.85 38.3824 135.862 38.3824 135.875C38.3824 135.887 38.3824 135.899 38.3824 135.911C38.3824 135.924 38.3824 135.936 38.3824 135.948C38.3824 135.96 38.3824 135.972 38.3824 135.985C38.3824 135.997 38.3824 136.009 38.3824 136.021C38.3824 136.033 38.3824 136.045 38.3824 136.057C38.3824 136.069 38.3824 136.081 38.3824 136.093C38.3824 136.105 38.3824 136.117 38.3824 136.129C38.3824 136.141 38.3824 136.153 38.3824 136.165C38.3824 136.177 38.3824 136.189 38.3824 136.201C38.3824 136.213 38.3824 136.225 38.3824 136.236C38.3824 136.248 38.3824 136.26 38.3824 136.272C38.3824 136.283 38.3824 136.295 38.3824 136.307C38.3824 136.319 38.3824 136.33 38.3824 136.342C38.3824 136.354 38.3824 136.365 38.3824 136.377C38.3824 136.389 38.3824 136.4 38.3824 136.412C38.3824 136.423 38.3824 136.435 38.3824 136.446C38.3824 136.458 38.3824 136.469 38.3824 136.481C38.3824 136.492 38.3824 136.504 38.3824 136.515C38.3824 136.527 38.3824 136.538 38.3824 136.55C38.3824 136.561 38.3824 136.572 38.3824 136.584C38.3824 136.595 38.3824 136.606 38.3824 136.618C38.3824 136.629 38.3824 136.64 38.3824 136.651C38.3824 136.663 38.3824 136.674 38.3824 136.685C38.3824 136.696 38.3824 136.707 38.3824 136.718C38.3824 136.73 38.3824 136.741 38.3824 136.752C38.3824 136.763 38.3824 136.774 38.3824 136.785C38.3824 136.796 38.3824 136.807 38.3824 136.818C38.3824 136.829 38.3824 136.84 38.3824 136.851C38.3824 136.862 38.3824 136.873 38.3824 136.884C38.3824 136.895 38.3824 136.906 38.3824 136.917C38.3824 136.927 38.3824 136.938 38.3824 136.949C38.3824 136.96 38.3824 136.971 38.3824 136.982C38.3824 136.992 38.3824 137.003 38.3824 137.014C38.3824 137.025 38.3824 137.035 38.3824 137.046C38.3824 137.057 38.3824 137.067 38.3824 137.078C38.3824 137.089 38.3824 137.099 38.3824 137.11C38.3824 137.12 38.3824 137.131 38.3824 137.141C38.3824 137.152 38.3824 137.162 38.3824 137.173C38.3824 137.183 38.3824 137.194 38.3824 137.204C38.3824 137.215 38.3824 137.225 38.3824 137.236C38.3824 137.246 38.3824 137.256 38.3824 137.267C38.3824 137.277 38.3824 137.288 38.3824 137.298C38.3824 137.308 38.3824 137.318 38.3824 137.329C38.3824 137.339 38.3824 137.349 38.3824 137.359C38.3824 137.37 38.3824 137.38 38.3824 137.39C38.3824 137.4 38.3824 137.41 38.3824 137.421C38.3824 137.431 38.3824 137.441 38.3824 137.451C38.3824 137.461 38.3824 137.471 38.3824 137.481C38.3824 137.491 38.3824 137.501 38.3824 137.511C38.3824 137.521 38.3824 137.531 38.3824 137.541C38.3824 137.551 38.3824 137.561 38.3824 137.571C38.3824 137.581 38.3824 137.591 38.3824 137.601C38.3824 137.61 38.3824 137.62 38.3824 137.63C38.3824 137.64 38.3824 137.65 38.3824 137.66C38.3824 137.669 38.3824 137.679 38.3824 137.689C38.3824 137.699 38.3824 137.708 38.3824 137.718C38.3824 137.728 38.3824 137.737 38.3824 137.747C38.3824 137.757 38.3824 137.766 38.3824 137.776C38.3824 137.785 38.3824 137.795 38.3824 137.805C38.3824 137.814 38.3824 137.824 38.3824 137.833C38.3824 137.843 38.3824 137.852 38.3824 137.862C38.3824 137.871 38.3824 137.881 38.3824 137.89C38.3824 137.9 38.3824 137.909 38.3824 137.918C38.3824 137.928 38.3824 137.937 38.3824 137.946C38.3824 137.956 38.3824 137.965 38.3824 137.974C38.3824 137.984 38.3824 137.993 38.3824 138.002C38.3824 138.011 38.3824 138.021 38.3824 138.03C38.3824 138.039 38.3824 138.048 38.3824 138.058C38.3824 138.067 38.3824 138.076 38.3824 138.085C38.3824 138.094 38.3824 138.103 38.3824 138.112C38.3824 138.121 38.3824 138.13 38.3824 138.139C38.3824 138.149 38.3824 138.158 38.3824 138.167C38.3824 138.176 38.3824 138.185 38.3824 138.194C38.3824 138.202 38.3824 138.211 38.3824 138.22C38.3824 138.229 38.3824 138.238 38.3824 138.247C38.3824 138.256 38.3824 138.265 38.3824 138.274C38.3824 138.282 38.3824 138.291 38.3824 138.3C38.3824 138.309 38.3824 138.318 38.3824 138.326C38.3824 138.335 38.3824 138.344 38.3824 138.353C38.3824 138.361 38.3824 138.37 38.3824 138.379C38.3824 138.387 38.3824 138.396 38.3824 138.405C38.3824 138.413 38.3824 138.422 38.3824 138.43C38.3824 138.439 38.3824 138.448 38.3824 138.456C38.3824 138.465 38.3824 138.473 38.3824 138.482C38.3824 138.49 38.3824 138.499 38.3824 138.507C38.3824 138.516 38.3824 138.524 38.3824 138.532C38.3824 138.541 38.3824 138.549 38.3824 138.558C38.3824 138.566 38.3824 138.574 38.3824 138.583C38.3824 138.591 38.3824 138.599 38.3824 138.608C38.3824 138.616 38.3824 138.624 38.3824 138.632C38.3824 138.641 38.3824 138.649 38.3824 138.657C38.3824 138.665 38.3824 138.674 38.3824 138.682C38.3824 138.69 38.3824 138.698 38.3824 138.706C38.3824 138.714 38.3824 138.723 38.3824 138.731C38.3824 138.739 38.3824 138.747 38.3824 138.755C38.3824 138.763 38.3824 138.771 38.3824 138.779C38.3824 138.787 38.3824 138.795 38.3824 138.803C38.3824 138.811 38.3824 138.819 38.3824 138.827C38.3824 138.835 38.3824 138.843 38.3824 138.851C38.3824 138.858 38.3824 138.866 38.3824 138.874C38.3824 138.882 38.3824 138.89 38.3824 138.898C38.3824 138.906 38.3824 138.913 38.3824 138.921C38.3824 138.929 38.3824 138.937 38.3824 138.944C38.3824 138.952 38.3824 138.96 38.3824 138.968C38.3824 138.975 38.3824 138.983 38.3824 138.991C38.3824 138.998 38.3824 139.006 38.3824 139.014C38.3824 139.021 38.3824 139.029 38.3824 139.036C38.3824 139.044 38.3824 139.051 38.3824 139.059C38.3824 139.067 38.3824 139.074 38.3824 139.082C38.3824 139.089 38.3824 139.097 38.3824 139.104C38.3824 139.112 38.3824 139.119 38.3824 139.126C38.3824 139.134 38.3824 139.141 38.3824 139.149C38.3824 139.156 38.3824 139.163 38.3824 139.171C38.3824 139.178 38.3824 139.185 38.3824 139.193C38.3824 139.2 38.3824 139.207 38.3824 139.215C38.3824 139.222 38.3824 139.229 38.3824 139.236C38.3824 139.244 38.3824 139.251 38.3824 139.258C38.3824 139.265 38.3824 139.272 38.3824 139.28C38.3824 139.287 38.3824 139.294 38.3824 139.301C38.3824 139.308 38.3824 139.315 38.3824 139.322C38.3824 139.329 38.3824 139.337 38.3824 139.344C38.3824 139.351 38.3824 139.358 38.3824 139.365C38.3824 139.372 38.3824 139.379 38.3824 139.386C38.3824 139.393 38.3824 139.4 38.3824 139.407C38.3824 139.414 38.3824 139.42 38.3824 139.427C38.3824 139.434 38.3824 139.441 38.3824 139.448C38.3824 139.455 38.3824 139.462 38.3824 139.469C38.3824 139.475 38.3824 139.482 38.3824 139.489C38.3824 139.496 38.3824 139.503 38.3824 139.509C38.3824 139.516 38.3824 139.523 38.3824 139.529C38.3824 139.536 38.3824 139.543 38.3824 139.55C38.3824 139.556 38.3824 139.563 38.3824 139.57C38.3824 139.576 38.3824 139.583 38.3824 139.589C38.3824 139.596 38.3824 139.603 38.3824 139.609C38.3824 139.616 38.3824 139.622 38.3824 139.629C38.3824 139.635 38.3824 139.642 38.3824 139.648C38.3824 139.655 38.3824 139.661 38.3824 139.668C38.3824 139.674 38.3824 139.681 38.3824 139.687C38.3824 139.694 38.3824 139.7 38.3824 139.706C38.3824 139.713 38.3824 139.719 38.3824 139.726C38.3824 139.732 38.3824 139.738 38.3824 139.745C38.3824 139.751 38.3824 139.757 38.3824 139.764C38.3824 139.77 38.3824 139.776 38.3824 139.782C38.3824 139.789 38.3824 139.795 38.3824 139.801C38.3824 139.807 38.3824 139.813 38.3824 139.82C38.3824 139.826 38.3824 139.832 38.3824 139.838C38.3824 139.844 38.3824 139.85 38.3824 139.856C38.3824 139.863 38.3824 139.869 38.3824 139.875C38.3824 139.881 38.3824 139.887 38.3824 139.893C38.3824 139.899 38.3824 139.905 38.3824 139.911C38.3824 139.917 38.3824 139.923 38.3824 139.929C38.3824 139.935 38.3824 139.941 38.3824 139.947C38.3824 139.953 38.3824 139.959 38.3824 139.965C38.3824 139.971 38.3824 139.976 38.3824 139.982C38.3824 139.988 38.3824 139.994 38.3824 140C38.3824 140.006 38.3824 140.012 38.3824 140.017C38.3824 140.023 38.3824 140.029 38.3824 140.035C38.3824 140.04 38.3824 140.046 38.3824 140.052C38.3824 140.058 38.3824 140.063 38.3824 140.069C38.3824 140.075 38.3824 140.08 38.3824 140.086C38.3824 140.092 38.3824 140.097 38.3824 140.103C38.3824 140.109 38.3824 140.114 38.3824 140.12C38.3824 140.126 38.3824 140.131 38.3824 140.137C38.3824 140.142 38.3824 140.148 38.3824 140.153C38.3824 140.159 38.3824 140.164 38.3824 140.17C38.3824 140.175 38.3824 140.181 38.3824 140.186C38.3824 140.192 38.3824 140.197 38.3824 140.203C38.3824 140.208 38.3824 140.214 38.3824 140.219C38.3824 140.224 38.3824 140.23 38.3824 140.235C38.3824 140.24 38.3824 140.246 38.3824 140.251C38.3824 140.256 38.3824 140.262 38.3824 140.267C38.3824 140.272 38.3824 140.278 38.3824 140.283C38.3824 140.288 38.3824 140.294 38.3824 140.299C38.3824 140.304 38.3824 140.309 38.3824 140.314C38.3824 140.32 38.3824 140.325 38.3824 140.33C38.3824 140.335 38.3824 140.34 38.3824 140.345C38.3824 140.351 38.3824 140.356 38.3824 140.361C38.3824 140.366 38.3824 140.371 38.3824 140.376C38.3824 140.381 38.3824 140.386 38.3824 140.391C38.3824 140.396 38.3824 140.401 38.3824 140.406C38.3824 140.411 38.3824 140.416 38.3824 140.421C38.3824 140.426 38.3824 140.431 38.3824 140.436C38.3824 140.441 38.3824 140.446 38.3824 140.451C38.3824 140.456 38.3824 140.461 38.3824 140.466C38.3824 140.471 38.3824 140.476 38.3824 140.48C38.3824 140.485 38.3824 140.49 38.3824 140.495C38.3824 140.5 38.3824 140.505 38.3824 140.509C38.3824 140.514 38.3824 140.519 38.3824 140.524C38.3824 140.529 38.3824 140.533 38.3824 140.538C38.3824 140.543 38.3824 140.547 38.3824 140.552C38.3824 140.557 38.3824 140.562 38.3824 140.566C38.3824 140.571 38.3824 140.576 38.3824 140.58C38.3824 140.585 38.3824 140.59 38.3824 140.594C38.3824 140.599 38.3824 140.603 38.3824 140.608C38.3824 140.613 38.3824 140.617 38.3824 140.622C38.3824 140.626 38.3824 140.631 38.3824 140.635C38.3824 140.64 38.3824 140.644 38.3824 140.649C38.3824 140.653 38.3824 140.658 38.3824 140.662C38.3824 140.667 38.3824 140.671 38.3824 140.676C38.3824 140.68 38.3824 140.684 38.3824 140.689C38.3824 140.693 38.3824 140.698 38.3824 140.702C38.3824 140.706 38.3824 140.711 38.3824 140.715C38.3824 140.719 38.3824 140.724 38.3824 140.728C38.3824 140.732 38.3824 140.737 38.3824 140.741C38.3824 140.745 38.3824 140.75 38.3824 140.754C38.3824 140.758 38.3824 140.762 38.3824 140.767C38.3824 140.771 38.3824 140.775 38.3824 140.779C38.3824 140.783 38.3824 140.788 38.3824 140.792C38.3824 140.796 38.3824 140.8 38.3824 140.804C38.3824 140.808 38.3824 140.812 38.3824 140.817C38.3824 140.821 38.3824 140.825 38.3824 140.829C38.3824 140.833 38.3824 140.837 38.3824 140.841C38.3824 140.845 38.3824 140.849 38.3824 140.853C38.3824 140.857 38.3824 140.861 38.3824 140.865C38.3824 140.869 38.3824 140.873 38.3824 140.877C38.3824 140.881 38.3824 140.885 38.3824 140.889C38.3824 140.893 38.3824 140.897 38.3824 140.901C38.3824 140.905 38.3824 140.909 38.3824 140.913C38.3824 140.916 38.3824 140.92 38.3824 140.924C38.3824 140.928 38.3824 140.932 38.3824 140.936C38.3824 140.94 38.3824 140.943 38.3824 140.947C38.3824 140.951 38.3824 140.955 38.3824 140.959C38.3824 140.962 38.3824 140.966 38.3824 140.97C38.3824 140.974 38.3824 140.977 38.3824 140.981C38.3824 140.985 38.3824 140.989 38.3824 140.992C38.3824 140.996 38.3824 141 38.3824 141.003C38.3824 141.007 38.3824 141.011 38.3824 141.014C38.3824 141.018 38.3824 141.021 38.3824 141.025C38.3824 141.029 38.3824 141.032 38.3824 141.036C38.3824 141.04 38.3824 141.043 38.3824 141.047C38.3824 141.05 38.3824 141.054 38.3824 141.057C38.3824 141.061 38.3824 141.064 38.3824 141.068C38.3824 141.071 38.3824 141.075 38.3824 141.078C38.3824 141.082 38.3824 141.085 38.3824 141.089C38.3824 141.092 38.3824 141.096 38.3824 141.099C38.3824 141.103 38.3824 141.106 38.3824 141.109C38.3824 141.113 38.3824 141.116 38.3824 141.12C38.3824 141.123 38.3824 141.126 38.3824 141.13C38.3824 141.133 38.3824 141.136 38.3824 141.14C38.3824 141.143 38.3824 141.146 38.3824 141.15C38.3824 141.153 38.3824 141.156 38.3824 141.159C38.3824 141.163 38.3824 141.166 38.3824 141.169C38.3824 141.172 38.3824 141.176 38.3824 141.179C38.3824 141.182 38.3824 141.185 38.3824 141.189C38.3824 141.192 38.3824 141.195 38.3824 141.198C38.3824 141.201 38.3824 141.204 38.3824 141.208C38.3824 141.211 38.3824 141.214 38.3824 141.217C38.3824 141.22 38.3824 141.223 38.3824 141.226C38.3824 141.229 38.3824 141.233 38.3824 141.236C38.3824 141.239 38.3824 141.242 38.3824 141.245C38.3824 141.248 38.3824 141.251 38.3824 141.254C38.3824 141.257 38.3824 141.26 38.3824 141.263C38.3824 141.266 38.3824 141.269 38.3824 141.272C38.3824 141.275 38.3824 141.278 38.3824 141.281C38.3824 141.284 38.3824 141.287 38.3824 141.29C38.3824 141.293 38.3824 141.295 38.3824 141.298C38.3824 141.301 38.3824 141.304 38.3824 141.307C38.3824 141.31 38.3824 141.313 38.3824 141.316C38.3824 141.319 38.3824 141.321 38.3824 141.324C38.3824 141.327 38.3824 141.33 38.3824 141.333C38.3824 141.335 38.3824 141.338 38.3824 141.341C38.3824 141.344 38.3824 141.347 38.3824 141.349C38.3824 141.352 38.3824 141.355 38.3824 141.358C38.3824 141.36 38.3824 141.363 38.3824 141.366C38.3824 141.369 38.3824 141.371 38.3824 141.374C38.3824 141.377 38.3824 141.379 38.3824 141.382C38.3824 141.385 38.3824 141.387 38.3824 141.39C38.3824 141.393 38.3824 141.395 38.3824 141.398C38.3824 141.4 38.3824 141.403 38.3824 141.406C38.3824 141.408 38.3824 141.411 38.3824 141.413C38.3824 141.416 38.3824 141.419 38.3824 141.421C38.3824 141.424 38.3824 141.426 38.3824 141.429C38.3824 141.431 38.3824 141.434 38.3824 141.436C38.3824 141.439 38.3824 141.441 38.3824 141.444C38.3824 141.446 38.3824 141.449 38.3824 141.451C38.3824 141.454 38.3824 141.456 38.3824 141.459C38.3824 141.461 38.3824 141.463 38.3824 141.466C38.3824 141.468 38.3824 141.471 38.3824 141.473C38.3824 141.476 38.3824 141.478 38.3824 141.48C38.3824 141.483 38.3824 141.485 38.3824 141.487C38.3824 141.49 38.3824 141.492 38.3824 141.494C38.3824 141.497 38.3824 141.499 38.3824 141.501C38.3824 141.504 38.3824 141.506 38.3824 141.508C38.3824 141.511 38.3824 141.513 38.3824 141.515C38.3824 141.517 38.3824 141.52 38.3824 141.522C38.3824 141.524 38.3824 141.526 38.3824 141.529C38.3824 141.531 38.3824 141.533 38.3824 141.535C38.3824 141.537 38.3824 141.54 38.3824 141.542C38.3824 141.544 38.3824 141.546 38.3824 141.548C38.3824 141.551 38.3824 141.553 38.3824 141.555C38.3824 141.557 38.3824 141.559 38.3824 141.561C38.3824 141.563 38.3824 141.566 38.3824 141.568C38.3824 141.57 38.3824 141.572 38.3824 141.574C38.3824 141.576 38.3824 141.578 38.3824 141.58C38.3824 141.582 38.3824 141.584 38.3824 141.586C38.3824 141.588 38.3824 141.59 38.3824 141.592C38.3824 141.594 38.3824 141.596 38.3824 141.598C38.3824 141.6 38.3824 141.602 38.3824 141.604C38.3824 141.606 38.3824 141.608 38.3824 141.61C38.3824 141.612 38.3824 141.614 38.3824 141.616C38.3824 141.618 38.3824 141.62 38.3824 141.622C38.3824 141.624 38.3824 141.626 38.3824 141.628C38.3824 141.63 38.3824 141.632 38.3824 141.633C38.3824 141.635 38.3824 141.637 38.3824 141.639C38.3824 141.641 38.3824 141.643 38.3824 141.645C38.3824 141.646 38.3824 141.648 38.3824 141.65C38.3824 141.652 38.3824 141.654 38.3824 141.656C38.3824 141.657 38.3824 141.659 38.3824 141.661C38.3824 141.663 38.3824 141.665 38.3824 141.666C38.3824 141.668 38.3824 141.67 38.3824 141.672C38.3824 141.673 38.3824 141.675 38.3824 141.677C38.3824 141.679 38.3824 141.68 38.3824 141.682C38.3824 141.684 38.3824 141.685 38.3824 141.687C38.3824 141.689 38.3824 141.69 38.3824 141.692C38.3824 141.694 38.3824 141.695 38.3824 141.697C38.3824 141.699 38.3824 141.7 38.3824 141.702C38.3824 141.704 38.3824 141.705 38.3824 141.707C38.3824 141.709 38.3824 141.71 38.3824 141.712C38.3824 141.713 38.3824 141.715 38.3824 141.717C38.3824 141.718 38.3824 141.72 38.3824 141.721C38.3824 141.723 38.3824 141.724 38.3824 141.726C38.3824 141.728 38.3824 141.729 38.3824 141.731C38.3824 141.732 38.3824 141.734 38.3824 141.735C38.3824 141.737 38.3824 141.738 38.3824 141.74C38.3824 141.741 38.3824 141.743 38.3824 141.744C38.3824 141.746 38.3824 141.747 38.3824 141.749C38.3824 141.75 38.3824 141.752 38.3824 141.753C38.3824 141.754 38.3824 141.756 38.3824 141.757C38.3824 141.759 38.3824 141.76 38.3824 141.762C38.3824 141.763 38.3824 141.764 38.3824 141.766C38.3824 141.767 38.3824 141.769 38.3824 141.77C38.3824 141.771 38.3824 141.773 38.3824 141.774C38.3824 141.776 38.3824 141.777 38.3824 141.778C38.3824 141.78 38.3824 141.781 38.3824 141.782C38.3824 141.784 38.3824 141.785 38.3824 141.786C38.3824 141.788 38.3824 141.789 38.3824 141.79C38.3824 141.791 38.3824 141.793 38.3824 141.794C38.3824 141.795 38.3824 141.797 38.3824 141.798C38.3824 141.799 38.3824 141.8 38.3824 141.802C38.3824 141.803 38.3824 141.804 38.3824 141.805C38.3824 141.807 38.3824 141.808 38.3824 141.809C38.3824 141.81 38.3824 141.811 38.3824 141.813C38.3824 141.814 38.3824 141.815 38.3824 141.816C38.3824 141.817 38.3824 141.819 38.3824 141.82C38.3824 141.821 38.3824 141.822 38.3824 141.823C38.3824 141.824 38.3824 141.826 38.3824 141.827C38.3824 141.828 38.3824 141.829 38.3824 141.83C38.3824 141.831 38.3824 141.832 38.3824 141.834C38.3824 141.835 38.3824 141.836 38.3824 141.837C38.3824 141.838 38.3824 141.839 38.3824 141.84C38.3824 141.841 38.3824 141.842 38.3824 141.843C38.3824 141.844 38.3824 141.846 38.3824 141.847C38.3824 141.848 38.3824 141.849 38.3824 141.85C38.3824 141.851 38.3824 141.852 38.3824 141.853C38.3824 141.854 38.3824 141.855 38.3824 141.856C38.3824 141.857 38.3824 141.858 38.3824 141.859C38.3824 141.86 38.3824 141.861 38.3824 141.862C38.3824 141.863 38.3824 141.864 38.3824 141.865C38.3824 141.866 38.3824 141.867 38.3824 141.868C38.3824 141.869 38.3824 141.87 38.3824 141.871C38.3824 141.871 38.3824 141.872 38.3824 141.873C38.3824 141.874 38.3824 141.875 38.3824 141.876C38.3824 141.877 38.3824 141.878 38.3824 141.879C38.3824 141.88 38.3824 141.881 38.3824 141.882C38.3824 141.882 38.3824 141.883 38.3824 141.884C38.3824 141.885 38.3824 141.886 38.3824 141.887C38.3824 141.888 38.3824 141.888 38.3824 141.889C38.3824 141.89 38.3824 141.891 38.3824 141.892C38.3824 141.893 38.3824 141.894 38.3824 141.894C38.3824 141.895 38.3824 141.896 38.3824 141.897C38.3824 141.898 38.3824 141.898 38.3824 141.899C38.3824 141.9 38.3824 141.901 38.3824 141.902C38.3824 141.902 38.3824 141.903 38.3824 141.904C38.3824 141.905 38.3824 141.905 38.3824 141.906C38.3824 141.907 38.3824 141.908 38.3824 141.909C38.3824 141.909 38.3824 141.91 38.3824 141.911C38.3824 141.911 38.3824 141.912 38.3824 141.913C38.3824 141.914 38.3824 141.914 38.3824 141.915C38.3824 141.916 38.3824 141.916 38.3824 141.917C38.3824 141.918 38.3824 141.919 38.3824 141.919C38.3824 141.92 38.3824 141.921 38.3824 141.921C38.3824 141.922 38.3824 141.923 38.3824 141.923C38.3824 141.924 38.3824 141.925 38.3824 141.925C38.3824 141.926 38.3824 141.927 38.3824 141.927C38.3824 141.928 38.3824 141.929 38.3824 141.929C38.3824 141.93 38.3824 141.93 38.3824 141.931C38.3824 141.932 38.3824 141.932 38.3824 141.933C38.3824 141.934 38.3824 141.934 38.3824 141.935C38.3824 141.935 38.3824 141.936 38.3824 141.936C38.3824 141.937 38.3824 141.938 38.3824 141.938C38.3824 141.939 38.3824 141.939 38.3824 141.94C38.3824 141.941 38.3824 141.941 38.3824 141.942C38.3824 141.942 38.3824 141.943 38.3824 141.943C38.3824 141.944 38.3824 141.944 38.3824 141.945C38.3824 141.945 38.3824 141.946 38.3824 141.946C38.3824 141.947 38.3824 141.948 38.3824 141.948C38.3824 141.949 38.3824 141.949 38.3824 141.95C38.3824 141.95 38.3824 141.951 38.3824 141.951C38.3824 141.952 38.3824 141.952 38.3824 141.953C38.3824 141.953 38.3824 141.953 38.3824 141.954C38.3824 141.954 38.3824 141.955 38.3824 141.955C38.3824 141.956 38.3824 141.956 38.3824 141.957C38.3824 141.957 38.3824 141.958 38.3824 141.958C38.3824 141.959 38.3824 141.959 38.3824 141.959C38.3824 141.96 38.3824 141.96 38.3824 141.961C38.3824 141.961 38.3824 141.962 38.3824 141.962C38.3824 141.962 38.3824 141.963 38.3824 141.963C38.3824 141.964 38.3824 141.964 38.3824 141.964C38.3824 141.965 38.3824 141.965 38.3824 141.966C38.3824 141.966 38.3824 141.966 38.3824 141.967C38.3824 141.967 38.3824 141.968 38.3824 141.968C38.3824 141.968 38.3824 141.969 38.3824 141.969C38.3824 141.969 38.3824 141.97 38.3824 141.97C38.3824 141.97 38.3824 141.971 38.3824 141.971C38.3824 141.972 38.3824 141.972 38.3824 141.972C38.3824 141.973 38.3824 141.973 38.3824 141.973C38.3824 141.974 38.3824 141.974 38.3824 141.974C38.3824 141.975 38.3824 141.975 38.3824 141.975C38.3824 141.975 38.3824 141.976 38.3824 141.976C38.3824 141.976 38.3824 141.977 38.3824 141.977C38.3824 141.977 38.3824 141.978 38.3824 141.978C38.3824 141.978 38.3824 141.978 38.3824 141.979C38.3824 141.979 38.3824 141.979 38.3824 141.98C38.3824 141.98 38.3824 141.98 38.3824 141.98C38.3824 141.981 38.3824 141.981 38.3824 141.981C38.3824 141.981 38.3824 141.982 38.3824 141.982C38.3824 141.982 38.3824 141.982 38.3824 141.983C38.3824 141.983 38.3824 141.983 38.3824 141.983C38.3824 141.984 38.3824 141.984 38.3824 141.984C38.3824 141.984 38.3824 141.985 38.3824 141.985C38.3824 141.985 38.3824 141.985 38.3824 141.986C38.3824 141.986 38.3824 141.986 38.3824 141.986C38.3824 141.986 38.3824 141.987 38.3824 141.987C38.3824 141.987 38.3824 141.987 38.3824 141.987C38.3824 141.988 38.3824 141.988 38.3824 141.988C38.3824 141.988 38.3824 141.988 38.3824 141.989C38.3824 141.989 38.3824 141.989 38.3824 141.989C38.3824 141.989 38.3824 141.99 38.3824 141.99C38.3824 141.99 38.3824 141.99 38.3824 141.99C38.3824 141.99 38.3824 141.991 38.3824 141.991C38.3824 141.991 38.3824 141.991 38.3824 141.991C38.3824 141.991 38.3824 141.992 38.3824 141.992C38.3824 141.992 38.3824 141.992 38.3824 141.992C38.3824 141.992 38.3824 141.992 38.3824 141.993C38.3824 141.993 38.3824 141.993 38.3824 141.993C38.3824 141.993 38.3824 141.993 38.3824 141.993C38.3824 141.993 38.3824 141.994 38.3824 141.994C38.3824 141.994 38.3824 141.994 38.3824 141.994C38.3824 141.994 38.3824 141.994 38.3824 141.994C38.3824 141.995 38.3824 141.995 38.3824 141.995C38.3824 141.995 38.3824 141.995 38.3824 141.995C38.3824 141.995 38.3824 141.995 38.3824 141.995C38.3824 141.996 38.3824 141.996 38.3824 141.996C38.3824 141.996 38.3824 141.996 38.3824 141.996C38.3824 141.996 38.3824 141.996 38.3824 141.996C38.3824 141.996 38.3824 141.997 38.3824 141.997C38.3824 141.997 38.3824 141.997 38.3824 141.997C38.3824 141.997 38.3824 141.997 38.3824 141.997C38.3824 141.997 38.3824 141.997 38.3824 141.997C38.3824 141.997 38.3824 141.997 38.3824 141.998C38.3824 141.998 38.3824 141.998 38.3824 141.998C38.3824 141.998 38.3824 141.998 38.3824 141.998C38.3824 141.998 38.3824 141.998 38.3824 141.998C38.3824 141.998 38.3824 141.998 38.3824 141.998C38.3824 141.998 38.3824 141.998 38.3824 141.998C38.3824 141.998 38.3824 141.999 38.3824 141.999C38.3824 141.999 38.3824 141.999 38.3824 141.999C38.3824 141.999 38.3824 141.999 38.3824 141.999C38.3824 141.999 38.3824 141.999 38.3824 141.999C38.3824 141.999 38.3824 141.999 38.3824 141.999C38.3824 141.999 38.3824 141.999 38.3824 141.999C38.3824 141.999 38.3824 141.999 38.3824 141.999C38.3824 141.999 38.3824 141.999 38.3824 141.999C38.3824 141.999 38.3824 141.999 38.3824 141.999C38.3824 141.999 38.3824 142 38.3824 142C38.3824 142 38.3824 142 38.3824 142C38.3824 142 38.3824 142 38.3824 142C38.3824 142 38.3824 142 38.3824 142C38.3824 142 38.3824 142 38.3824 142C38.3824 142 38.3824 142 38.3824 142C38.3824 142 38.3824 142 38.3824 142C38.3824 142 38.3824 142 38.3824 142C38.3824 142 38.3824 142 38.3824 142C38.3824 142 38.3824 142 38.3824 142C38.3824 142 38.3824 142 38.3824 142C38.3824 142 38.3824 142 38.3824 142C38.3824 142 38.3824 142 38.3824 142C38.3824 142 38.3824 142 38.3824 142C38.3824 142 38.3824 142 38.3824 142C38.3824 142 38.3824 142 38.3824 142C38.3824 142 38.3824 142 39.8824 142C41.3824 142 41.3824 142 41.3824 142C41.3824 142 41.3824 142 41.3824 142C41.3824 142 41.3824 142 41.3824 142C41.3824 142 41.3824 142 41.3824 142C41.3824 142 41.3824 142 41.3824 142C41.3824 142 41.3824 142 41.3824 142C41.3824 142 41.3824 142 41.3824 142C41.3824 142 41.3824 142 41.3824 142C41.3824 142 41.3824 142 41.3824 142C41.3824 142 41.3824 142 41.3824 142C41.3824 142 41.3824 142 41.3824 142C41.3824 142 41.3824 142 41.3824 142C41.3824 142 41.3824 142 41.3824 142C41.3824 142 41.3824 142 41.3824 142C41.3824 142 41.3824 142 41.3824 142C41.3824 142 41.3824 142 41.3824 142C41.3824 142 41.3824 141.999 41.3824 141.999C41.3824 141.999 41.3824 141.999 41.3824 141.999C41.3824 141.999 41.3824 141.999 41.3824 141.999C41.3824 141.999 41.3824 141.999 41.3824 141.999C41.3824 141.999 41.3824 141.999 41.3824 141.999C41.3824 141.999 41.3824 141.999 41.3824 141.999C41.3824 141.999 41.3824 141.999 41.3824 141.999C41.3824 141.999 41.3824 141.999 41.3824 141.999C41.3824 141.999 41.3824 141.999 41.3824 141.999C41.3824 141.999 41.3824 141.998 41.3824 141.998C41.3824 141.998 41.3824 141.998 41.3824 141.998C41.3824 141.998 41.3824 141.998 41.3824 141.998C41.3824 141.998 41.3824 141.998 41.3824 141.998C41.3824 141.998 41.3824 141.998 41.3824 141.998C41.3824 141.998 41.3824 141.998 41.3824 141.998C41.3824 141.997 41.3824 141.997 41.3824 141.997C41.3824 141.997 41.3824 141.997 41.3824 141.997C41.3824 141.997 41.3824 141.997 41.3824 141.997C41.3824 141.997 41.3824 141.997 41.3824 141.997C41.3824 141.997 41.3824 141.996 41.3824 141.996C41.3824 141.996 41.3824 141.996 41.3824 141.996C41.3824 141.996 41.3824 141.996 41.3824 141.996C41.3824 141.996 41.3824 141.996 41.3824 141.995C41.3824 141.995 41.3824 141.995 41.3824 141.995C41.3824 141.995 41.3824 141.995 41.3824 141.995C41.3824 141.995 41.3824 141.995 41.3824 141.994C41.3824 141.994 41.3824 141.994 41.3824 141.994C41.3824 141.994 41.3824 141.994 41.3824 141.994C41.3824 141.994 41.3824 141.993 41.3824 141.993C41.3824 141.993 41.3824 141.993 41.3824 141.993C41.3824 141.993 41.3824 141.993 41.3824 141.993C41.3824 141.992 41.3824 141.992 41.3824 141.992C41.3824 141.992 41.3824 141.992 41.3824 141.992C41.3824 141.992 41.3824 141.991 41.3824 141.991C41.3824 141.991 41.3824 141.991 41.3824 141.991C41.3824 141.991 41.3824 141.99 41.3824 141.99C41.3824 141.99 41.3824 141.99 41.3824 141.99C41.3824 141.99 41.3824 141.989 41.3824 141.989C41.3824 141.989 41.3824 141.989 41.3824 141.989C41.3824 141.988 41.3824 141.988 41.3824 141.988C41.3824 141.988 41.3824 141.988 41.3824 141.987C41.3824 141.987 41.3824 141.987 41.3824 141.987C41.3824 141.987 41.3824 141.986 41.3824 141.986C41.3824 141.986 41.3824 141.986 41.3824 141.986C41.3824 141.985 41.3824 141.985 41.3824 141.985C41.3824 141.985 41.3824 141.984 41.3824 141.984C41.3824 141.984 41.3824 141.984 41.3824 141.983C41.3824 141.983 41.3824 141.983 41.3824 141.983C41.3824 141.982 41.3824 141.982 41.3824 141.982C41.3824 141.982 41.3824 141.981 41.3824 141.981C41.3824 141.981 41.3824 141.981 41.3824 141.98C41.3824 141.98 41.3824 141.98 41.3824 141.98C41.3824 141.979 41.3824 141.979 41.3824 141.979C41.3824 141.978 41.3824 141.978 41.3824 141.978C41.3824 141.978 41.3824 141.977 41.3824 141.977C41.3824 141.977 41.3824 141.976 41.3824 141.976C41.3824 141.976 41.3824 141.975 41.3824 141.975C41.3824 141.975 41.3824 141.975 41.3824 141.974C41.3824 141.974 41.3824 141.974 41.3824 141.973C41.3824 141.973 41.3824 141.973 41.3824 141.972C41.3824 141.972 41.3824 141.972 41.3824 141.971C41.3824 141.971 41.3824 141.97 41.3824 141.97C41.3824 141.97 41.3824 141.969 41.3824 141.969C41.3824 141.969 41.3824 141.968 41.3824 141.968C41.3824 141.968 41.3824 141.967 41.3824 141.967C41.3824 141.966 41.3824 141.966 41.3824 141.966C41.3824 141.965 41.3824 141.965 41.3824 141.964C41.3824 141.964 41.3824 141.964 41.3824 141.963C41.3824 141.963 41.3824 141.962 41.3824 141.962C41.3824 141.962 41.3824 141.961 41.3824 141.961C41.3824 141.96 41.3824 141.96 41.3824 141.959C41.3824 141.959 41.3824 141.959 41.3824 141.958C41.3824 141.958 41.3824 141.957 41.3824 141.957C41.3824 141.956 41.3824 141.956 41.3824 141.955C41.3824 141.955 41.3824 141.954 41.3824 141.954C41.3824 141.953 41.3824 141.953 41.3824 141.953C41.3824 141.952 41.3824 141.952 41.3824 141.951C41.3824 141.951 41.3824 141.95 41.3824 141.95C41.3824 141.949 41.3824 141.949 41.3824 141.948C41.3824 141.948 41.3824 141.947 41.3824 141.946C41.3824 141.946 41.3824 141.945 41.3824 141.945C41.3824 141.944 41.3824 141.944 41.3824 141.943C41.3824 141.943 41.3824 141.942 41.3824 141.942C41.3824 141.941 41.3824 141.941 41.3824 141.94C41.3824 141.939 41.3824 141.939 41.3824 141.938C41.3824 141.938 41.3824 141.937 41.3824 141.936C41.3824 141.936 41.3824 141.935 41.3824 141.935C41.3824 141.934 41.3824 141.934 41.3824 141.933C41.3824 141.932 41.3824 141.932 41.3824 141.931C41.3824 141.93 41.3824 141.93 41.3824 141.929C41.3824 141.929 41.3824 141.928 41.3824 141.927C41.3824 141.927 41.3824 141.926 41.3824 141.925C41.3824 141.925 41.3824 141.924 41.3824 141.923C41.3824 141.923 41.3824 141.922 41.3824 141.921C41.3824 141.921 41.3824 141.92 41.3824 141.919C41.3824 141.919 41.3824 141.918 41.3824 141.917C41.3824 141.916 41.3824 141.916 41.3824 141.915C41.3824 141.914 41.3824 141.914 41.3824 141.913C41.3824 141.912 41.3824 141.911 41.3824 141.911C41.3824 141.91 41.3824 141.909 41.3824 141.909C41.3824 141.908 41.3824 141.907 41.3824 141.906C41.3824 141.905 41.3824 141.905 41.3824 141.904C41.3824 141.903 41.3824 141.902 41.3824 141.902C41.3824 141.901 41.3824 141.9 41.3824 141.899C41.3824 141.898 41.3824 141.898 41.3824 141.897C41.3824 141.896 41.3824 141.895 41.3824 141.894C41.3824 141.894 41.3824 141.893 41.3824 141.892C41.3824 141.891 41.3824 141.89 41.3824 141.889C41.3824 141.888 41.3824 141.888 41.3824 141.887C41.3824 141.886 41.3824 141.885 41.3824 141.884C41.3824 141.883 41.3824 141.882 41.3824 141.882C41.3824 141.881 41.3824 141.88 41.3824 141.879C41.3824 141.878 41.3824 141.877 41.3824 141.876C41.3824 141.875 41.3824 141.874 41.3824 141.873C41.3824 141.872 41.3824 141.871 41.3824 141.871C41.3824 141.87 41.3824 141.869 41.3824 141.868C41.3824 141.867 41.3824 141.866 41.3824 141.865C41.3824 141.864 41.3824 141.863 41.3824 141.862C41.3824 141.861 41.3824 141.86 41.3824 141.859C41.3824 141.858 41.3824 141.857 41.3824 141.856C41.3824 141.855 41.3824 141.854 41.3824 141.853C41.3824 141.852 41.3824 141.851 41.3824 141.85C41.3824 141.849 41.3824 141.848 41.3824 141.847C41.3824 141.846 41.3824 141.844 41.3824 141.843C41.3824 141.842 41.3824 141.841 41.3824 141.84C41.3824 141.839 41.3824 141.838 41.3824 141.837C41.3824 141.836 41.3824 141.835 41.3824 141.834C41.3824 141.832 41.3824 141.831 41.3824 141.83C41.3824 141.829 41.3824 141.828 41.3824 141.827C41.3824 141.826 41.3824 141.824 41.3824 141.823C41.3824 141.822 41.3824 141.821 41.3824 141.82C41.3824 141.819 41.3824 141.817 41.3824 141.816C41.3824 141.815 41.3824 141.814 41.3824 141.813C41.3824 141.811 41.3824 141.81 41.3824 141.809C41.3824 141.808 41.3824 141.807 41.3824 141.805C41.3824 141.804 41.3824 141.803 41.3824 141.802C41.3824 141.8 41.3824 141.799 41.3824 141.798C41.3824 141.797 41.3824 141.795 41.3824 141.794C41.3824 141.793 41.3824 141.791 41.3824 141.79C41.3824 141.789 41.3824 141.788 41.3824 141.786C41.3824 141.785 41.3824 141.784 41.3824 141.782C41.3824 141.781 41.3824 141.78 41.3824 141.778C41.3824 141.777 41.3824 141.776 41.3824 141.774C41.3824 141.773 41.3824 141.771 41.3824 141.77C41.3824 141.769 41.3824 141.767 41.3824 141.766C41.3824 141.764 41.3824 141.763 41.3824 141.762C41.3824 141.76 41.3824 141.759 41.3824 141.757C41.3824 141.756 41.3824 141.754 41.3824 141.753C41.3824 141.752 41.3824 141.75 41.3824 141.749C41.3824 141.747 41.3824 141.746 41.3824 141.744C41.3824 141.743 41.3824 141.741 41.3824 141.74C41.3824 141.738 41.3824 141.737 41.3824 141.735C41.3824 141.734 41.3824 141.732 41.3824 141.731C41.3824 141.729 41.3824 141.728 41.3824 141.726C41.3824 141.724 41.3824 141.723 41.3824 141.721C41.3824 141.72 41.3824 141.718 41.3824 141.717C41.3824 141.715 41.3824 141.713 41.3824 141.712C41.3824 141.71 41.3824 141.709 41.3824 141.707C41.3824 141.705 41.3824 141.704 41.3824 141.702C41.3824 141.7 41.3824 141.699 41.3824 141.697C41.3824 141.695 41.3824 141.694 41.3824 141.692C41.3824 141.69 41.3824 141.689 41.3824 141.687C41.3824 141.685 41.3824 141.684 41.3824 141.682C41.3824 141.68 41.3824 141.679 41.3824 141.677C41.3824 141.675 41.3824 141.673 41.3824 141.672C41.3824 141.67 41.3824 141.668 41.3824 141.666C41.3824 141.665 41.3824 141.663 41.3824 141.661C41.3824 141.659 41.3824 141.657 41.3824 141.656C41.3824 141.654 41.3824 141.652 41.3824 141.65C41.3824 141.648 41.3824 141.646 41.3824 141.645C41.3824 141.643 41.3824 141.641 41.3824 141.639C41.3824 141.637 41.3824 141.635 41.3824 141.633C41.3824 141.632 41.3824 141.63 41.3824 141.628C41.3824 141.626 41.3824 141.624 41.3824 141.622C41.3824 141.62 41.3824 141.618 41.3824 141.616C41.3824 141.614 41.3824 141.612 41.3824 141.61C41.3824 141.608 41.3824 141.606 41.3824 141.604C41.3824 141.602 41.3824 141.6 41.3824 141.598C41.3824 141.596 41.3824 141.594 41.3824 141.592C41.3824 141.59 41.3824 141.588 41.3824 141.586C41.3824 141.584 41.3824 141.582 41.3824 141.58C41.3824 141.578 41.3824 141.576 41.3824 141.574C41.3824 141.572 41.3824 141.57 41.3824 141.568C41.3824 141.566 41.3824 141.563 41.3824 141.561C41.3824 141.559 41.3824 141.557 41.3824 141.555C41.3824 141.553 41.3824 141.551 41.3824 141.548C41.3824 141.546 41.3824 141.544 41.3824 141.542C41.3824 141.54 41.3824 141.537 41.3824 141.535C41.3824 141.533 41.3824 141.531 41.3824 141.529C41.3824 141.526 41.3824 141.524 41.3824 141.522C41.3824 141.52 41.3824 141.517 41.3824 141.515C41.3824 141.513 41.3824 141.511 41.3824 141.508C41.3824 141.506 41.3824 141.504 41.3824 141.501C41.3824 141.499 41.3824 141.497 41.3824 141.494C41.3824 141.492 41.3824 141.49 41.3824 141.487C41.3824 141.485 41.3824 141.483 41.3824 141.48C41.3824 141.478 41.3824 141.476 41.3824 141.473C41.3824 141.471 41.3824 141.468 41.3824 141.466C41.3824 141.463 41.3824 141.461 41.3824 141.459C41.3824 141.456 41.3824 141.454 41.3824 141.451C41.3824 141.449 41.3824 141.446 41.3824 141.444C41.3824 141.441 41.3824 141.439 41.3824 141.436C41.3824 141.434 41.3824 141.431 41.3824 141.429C41.3824 141.426 41.3824 141.424 41.3824 141.421C41.3824 141.419 41.3824 141.416 41.3824 141.413C41.3824 141.411 41.3824 141.408 41.3824 141.406C41.3824 141.403 41.3824 141.4 41.3824 141.398C41.3824 141.395 41.3824 141.393 41.3824 141.39C41.3824 141.387 41.3824 141.385 41.3824 141.382C41.3824 141.379 41.3824 141.377 41.3824 141.374C41.3824 141.371 41.3824 141.369 41.3824 141.366C41.3824 141.363 41.3824 141.36 41.3824 141.358C41.3824 141.355 41.3824 141.352 41.3824 141.349C41.3824 141.347 41.3824 141.344 41.3824 141.341C41.3824 141.338 41.3824 141.335 41.3824 141.333C41.3824 141.33 41.3824 141.327 41.3824 141.324C41.3824 141.321 41.3824 141.319 41.3824 141.316C41.3824 141.313 41.3824 141.31 41.3824 141.307C41.3824 141.304 41.3824 141.301 41.3824 141.298C41.3824 141.295 41.3824 141.293 41.3824 141.29C41.3824 141.287 41.3824 141.284 41.3824 141.281C41.3824 141.278 41.3824 141.275 41.3824 141.272C41.3824 141.269 41.3824 141.266 41.3824 141.263C41.3824 141.26 41.3824 141.257 41.3824 141.254C41.3824 141.251 41.3824 141.248 41.3824 141.245C41.3824 141.242 41.3824 141.239 41.3824 141.236C41.3824 141.233 41.3824 141.229 41.3824 141.226C41.3824 141.223 41.3824 141.22 41.3824 141.217C41.3824 141.214 41.3824 141.211 41.3824 141.208C41.3824 141.204 41.3824 141.201 41.3824 141.198C41.3824 141.195 41.3824 141.192 41.3824 141.189C41.3824 141.185 41.3824 141.182 41.3824 141.179C41.3824 141.176 41.3824 141.172 41.3824 141.169C41.3824 141.166 41.3824 141.163 41.3824 141.159C41.3824 141.156 41.3824 141.153 41.3824 141.15C41.3824 141.146 41.3824 141.143 41.3824 141.14C41.3824 141.136 41.3824 141.133 41.3824 141.13C41.3824 141.126 41.3824 141.123 41.3824 141.12C41.3824 141.116 41.3824 141.113 41.3824 141.109C41.3824 141.106 41.3824 141.103 41.3824 141.099C41.3824 141.096 41.3824 141.092 41.3824 141.089C41.3824 141.085 41.3824 141.082 41.3824 141.078C41.3824 141.075 41.3824 141.071 41.3824 141.068C41.3824 141.064 41.3824 141.061 41.3824 141.057C41.3824 141.054 41.3824 141.05 41.3824 141.047C41.3824 141.043 41.3824 141.04 41.3824 141.036C41.3824 141.032 41.3824 141.029 41.3824 141.025C41.3824 141.021 41.3824 141.018 41.3824 141.014C41.3824 141.011 41.3824 141.007 41.3824 141.003C41.3824 141 41.3824 140.996 41.3824 140.992C41.3824 140.989 41.3824 140.985 41.3824 140.981C41.3824 140.977 41.3824 140.974 41.3824 140.97C41.3824 140.966 41.3824 140.962 41.3824 140.959C41.3824 140.955 41.3824 140.951 41.3824 140.947C41.3824 140.943 41.3824 140.94 41.3824 140.936C41.3824 140.932 41.3824 140.928 41.3824 140.924C41.3824 140.92 41.3824 140.916 41.3824 140.913C41.3824 140.909 41.3824 140.905 41.3824 140.901C41.3824 140.897 41.3824 140.893 41.3824 140.889C41.3824 140.885 41.3824 140.881 41.3824 140.877C41.3824 140.873 41.3824 140.869 41.3824 140.865C41.3824 140.861 41.3824 140.857 41.3824 140.853C41.3824 140.849 41.3824 140.845 41.3824 140.841C41.3824 140.837 41.3824 140.833 41.3824 140.829C41.3824 140.825 41.3824 140.821 41.3824 140.817C41.3824 140.812 41.3824 140.808 41.3824 140.804C41.3824 140.8 41.3824 140.796 41.3824 140.792C41.3824 140.788 41.3824 140.783 41.3824 140.779C41.3824 140.775 41.3824 140.771 41.3824 140.767C41.3824 140.762 41.3824 140.758 41.3824 140.754C41.3824 140.75 41.3824 140.745 41.3824 140.741C41.3824 140.737 41.3824 140.732 41.3824 140.728C41.3824 140.724 41.3824 140.719 41.3824 140.715C41.3824 140.711 41.3824 140.706 41.3824 140.702C41.3824 140.698 41.3824 140.693 41.3824 140.689C41.3824 140.684 41.3824 140.68 41.3824 140.676C41.3824 140.671 41.3824 140.667 41.3824 140.662C41.3824 140.658 41.3824 140.653 41.3824 140.649C41.3824 140.644 41.3824 140.64 41.3824 140.635C41.3824 140.631 41.3824 140.626 41.3824 140.622C41.3824 140.617 41.3824 140.613 41.3824 140.608C41.3824 140.603 41.3824 140.599 41.3824 140.594C41.3824 140.59 41.3824 140.585 41.3824 140.58C41.3824 140.576 41.3824 140.571 41.3824 140.566C41.3824 140.562 41.3824 140.557 41.3824 140.552C41.3824 140.547 41.3824 140.543 41.3824 140.538C41.3824 140.533 41.3824 140.529 41.3824 140.524C41.3824 140.519 41.3824 140.514 41.3824 140.509C41.3824 140.505 41.3824 140.5 41.3824 140.495C41.3824 140.49 41.3824 140.485 41.3824 140.48C41.3824 140.476 41.3824 140.471 41.3824 140.466C41.3824 140.461 41.3824 140.456 41.3824 140.451C41.3824 140.446 41.3824 140.441 41.3824 140.436C41.3824 140.431 41.3824 140.426 41.3824 140.421C41.3824 140.416 41.3824 140.411 41.3824 140.406C41.3824 140.401 41.3824 140.396 41.3824 140.391C41.3824 140.386 41.3824 140.381 41.3824 140.376C41.3824 140.371 41.3824 140.366 41.3824 140.361C41.3824 140.356 41.3824 140.351 41.3824 140.345C41.3824 140.34 41.3824 140.335 41.3824 140.33C41.3824 140.325 41.3824 140.32 41.3824 140.314C41.3824 140.309 41.3824 140.304 41.3824 140.299C41.3824 140.294 41.3824 140.288 41.3824 140.283C41.3824 140.278 41.3824 140.272 41.3824 140.267C41.3824 140.262 41.3824 140.256 41.3824 140.251C41.3824 140.246 41.3824 140.24 41.3824 140.235C41.3824 140.23 41.3824 140.224 41.3824 140.219C41.3824 140.214 41.3824 140.208 41.3824 140.203C41.3824 140.197 41.3824 140.192 41.3824 140.186C41.3824 140.181 41.3824 140.175 41.3824 140.17C41.3824 140.164 41.3824 140.159 41.3824 140.153C41.3824 140.148 41.3824 140.142 41.3824 140.137C41.3824 140.131 41.3824 140.126 41.3824 140.12C41.3824 140.114 41.3824 140.109 41.3824 140.103C41.3824 140.097 41.3824 140.092 41.3824 140.086C41.3824 140.08 41.3824 140.075 41.3824 140.069C41.3824 140.063 41.3824 140.058 41.3824 140.052C41.3824 140.046 41.3824 140.04 41.3824 140.035C41.3824 140.029 41.3824 140.023 41.3824 140.017C41.3824 140.012 41.3824 140.006 41.3824 140C41.3824 139.994 41.3824 139.988 41.3824 139.982C41.3824 139.976 41.3824 139.971 41.3824 139.965C41.3824 139.959 41.3824 139.953 41.3824 139.947C41.3824 139.941 41.3824 139.935 41.3824 139.929C41.3824 139.923 41.3824 139.917 41.3824 139.911C41.3824 139.905 41.3824 139.899 41.3824 139.893C41.3824 139.887 41.3824 139.881 41.3824 139.875C41.3824 139.869 41.3824 139.863 41.3824 139.856C41.3824 139.85 41.3824 139.844 41.3824 139.838C41.3824 139.832 41.3824 139.826 41.3824 139.82C41.3824 139.813 41.3824 139.807 41.3824 139.801C41.3824 139.795 41.3824 139.789 41.3824 139.782C41.3824 139.776 41.3824 139.77 41.3824 139.764C41.3824 139.757 41.3824 139.751 41.3824 139.745C41.3824 139.738 41.3824 139.732 41.3824 139.726C41.3824 139.719 41.3824 139.713 41.3824 139.706C41.3824 139.7 41.3824 139.694 41.3824 139.687C41.3824 139.681 41.3824 139.674 41.3824 139.668C41.3824 139.661 41.3824 139.655 41.3824 139.648C41.3824 139.642 41.3824 139.635 41.3824 139.629C41.3824 139.622 41.3824 139.616 41.3824 139.609C41.3824 139.603 41.3824 139.596 41.3824 139.589C41.3824 139.583 41.3824 139.576 41.3824 139.57C41.3824 139.563 41.3824 139.556 41.3824 139.55C41.3824 139.543 41.3824 139.536 41.3824 139.529C41.3824 139.523 41.3824 139.516 41.3824 139.509C41.3824 139.503 41.3824 139.496 41.3824 139.489C41.3824 139.482 41.3824 139.475 41.3824 139.469C41.3824 139.462 41.3824 139.455 41.3824 139.448C41.3824 139.441 41.3824 139.434 41.3824 139.427C41.3824 139.42 41.3824 139.414 41.3824 139.407C41.3824 139.4 41.3824 139.393 41.3824 139.386C41.3824 139.379 41.3824 139.372 41.3824 139.365C41.3824 139.358 41.3824 139.351 41.3824 139.344C41.3824 139.337 41.3824 139.329 41.3824 139.322C41.3824 139.315 41.3824 139.308 41.3824 139.301C41.3824 139.294 41.3824 139.287 41.3824 139.28C41.3824 139.272 41.3824 139.265 41.3824 139.258C41.3824 139.251 41.3824 139.244 41.3824 139.236C41.3824 139.229 41.3824 139.222 41.3824 139.215C41.3824 139.207 41.3824 139.2 41.3824 139.193C41.3824 139.185 41.3824 139.178 41.3824 139.171C41.3824 139.163 41.3824 139.156 41.3824 139.149C41.3824 139.141 41.3824 139.134 41.3824 139.126C41.3824 139.119 41.3824 139.112 41.3824 139.104C41.3824 139.097 41.3824 139.089 41.3824 139.082C41.3824 139.074 41.3824 139.067 41.3824 139.059C41.3824 139.051 41.3824 139.044 41.3824 139.036C41.3824 139.029 41.3824 139.021 41.3824 139.014C41.3824 139.006 41.3824 138.998 41.3824 138.991C41.3824 138.983 41.3824 138.975 41.3824 138.968C41.3824 138.96 41.3824 138.952 41.3824 138.944C41.3824 138.937 41.3824 138.929 41.3824 138.921C41.3824 138.913 41.3824 138.906 41.3824 138.898C41.3824 138.89 41.3824 138.882 41.3824 138.874C41.3824 138.866 41.3824 138.858 41.3824 138.851C41.3824 138.843 41.3824 138.835 41.3824 138.827C41.3824 138.819 41.3824 138.811 41.3824 138.803C41.3824 138.795 41.3824 138.787 41.3824 138.779C41.3824 138.771 41.3824 138.763 41.3824 138.755C41.3824 138.747 41.3824 138.739 41.3824 138.731C41.3824 138.723 41.3824 138.714 41.3824 138.706C41.3824 138.698 41.3824 138.69 41.3824 138.682C41.3824 138.674 41.3824 138.665 41.3824 138.657C41.3824 138.649 41.3824 138.641 41.3824 138.632C41.3824 138.624 41.3824 138.616 41.3824 138.608C41.3824 138.599 41.3824 138.591 41.3824 138.583C41.3824 138.574 41.3824 138.566 41.3824 138.558C41.3824 138.549 41.3824 138.541 41.3824 138.532C41.3824 138.524 41.3824 138.516 41.3824 138.507C41.3824 138.499 41.3824 138.49 41.3824 138.482C41.3824 138.473 41.3824 138.465 41.3824 138.456C41.3824 138.448 41.3824 138.439 41.3824 138.43C41.3824 138.422 41.3824 138.413 41.3824 138.405C41.3824 138.396 41.3824 138.387 41.3824 138.379C41.3824 138.37 41.3824 138.361 41.3824 138.353C41.3824 138.344 41.3824 138.335 41.3824 138.326C41.3824 138.318 41.3824 138.309 41.3824 138.3C41.3824 138.291 41.3824 138.282 41.3824 138.274C41.3824 138.265 41.3824 138.256 41.3824 138.247C41.3824 138.238 41.3824 138.229 41.3824 138.22C41.3824 138.211 41.3824 138.202 41.3824 138.194C41.3824 138.185 41.3824 138.176 41.3824 138.167C41.3824 138.158 41.3824 138.149 41.3824 138.139C41.3824 138.13 41.3824 138.121 41.3824 138.112C41.3824 138.103 41.3824 138.094 41.3824 138.085C41.3824 138.076 41.3824 138.067 41.3824 138.058C41.3824 138.048 41.3824 138.039 41.3824 138.03C41.3824 138.021 41.3824 138.011 41.3824 138.002C41.3824 137.993 41.3824 137.984 41.3824 137.974C41.3824 137.965 41.3824 137.956 41.3824 137.946C41.3824 137.937 41.3824 137.928 41.3824 137.918C41.3824 137.909 41.3824 137.9 41.3824 137.89C41.3824 137.881 41.3824 137.871 41.3824 137.862C41.3824 137.852 41.3824 137.843 41.3824 137.833C41.3824 137.824 41.3824 137.814 41.3824 137.805C41.3824 137.795 41.3824 137.785 41.3824 137.776C41.3824 137.766 41.3824 137.757 41.3824 137.747C41.3824 137.737 41.3824 137.728 41.3824 137.718C41.3824 137.708 41.3824 137.699 41.3824 137.689C41.3824 137.679 41.3824 137.669 41.3824 137.66C41.3824 137.65 41.3824 137.64 41.3824 137.63C41.3824 137.62 41.3824 137.61 41.3824 137.601C41.3824 137.591 41.3824 137.581 41.3824 137.571C41.3824 137.561 41.3824 137.551 41.3824 137.541C41.3824 137.531 41.3824 137.521 41.3824 137.511C41.3824 137.501 41.3824 137.491 41.3824 137.481C41.3824 137.471 41.3824 137.461 41.3824 137.451C41.3824 137.441 41.3824 137.431 41.3824 137.421C41.3824 137.41 41.3824 137.4 41.3824 137.39C41.3824 137.38 41.3824 137.37 41.3824 137.359C41.3824 137.349 41.3824 137.339 41.3824 137.329C41.3824 137.318 41.3824 137.308 41.3824 137.298C41.3824 137.288 41.3824 137.277 41.3824 137.267C41.3824 137.256 41.3824 137.246 41.3824 137.236C41.3824 137.225 41.3824 137.215 41.3824 137.204C41.3824 137.194 41.3824 137.183 41.3824 137.173C41.3824 137.162 41.3824 137.152 41.3824 137.141C41.3824 137.131 41.3824 137.12 41.3824 137.11C41.3824 137.099 41.3824 137.089 41.3824 137.078C41.3824 137.067 41.3824 137.057 41.3824 137.046C41.3824 137.035 41.3824 137.025 41.3824 137.014C41.3824 137.003 41.3824 136.992 41.3824 136.982C41.3824 136.971 41.3824 136.96 41.3824 136.949C41.3824 136.938 41.3824 136.927 41.3824 136.917C41.3824 136.906 41.3824 136.895 41.3824 136.884C41.3824 136.873 41.3824 136.862 41.3824 136.851C41.3824 136.84 41.3824 136.829 41.3824 136.818C41.3824 136.807 41.3824 136.796 41.3824 136.785C41.3824 136.774 41.3824 136.763 41.3824 136.752C41.3824 136.741 41.3824 136.73 41.3824 136.718C41.3824 136.707 41.3824 136.696 41.3824 136.685C41.3824 136.674 41.3824 136.663 41.3824 136.651C41.3824 136.64 41.3824 136.629 41.3824 136.618C41.3824 136.606 41.3824 136.595 41.3824 136.584C41.3824 136.572 41.3824 136.561 41.3824 136.55C41.3824 136.538 41.3824 136.527 41.3824 136.515C41.3824 136.504 41.3824 136.492 41.3824 136.481C41.3824 136.469 41.3824 136.458 41.3824 136.446C41.3824 136.435 41.3824 136.423 41.3824 136.412C41.3824 136.4 41.3824 136.389 41.3824 136.377C41.3824 136.365 41.3824 136.354 41.3824 136.342C41.3824 136.33 41.3824 136.319 41.3824 136.307C41.3824 136.295 41.3824 136.283 41.3824 136.272C41.3824 136.26 41.3824 136.248 41.3824 136.236C41.3824 136.225 41.3824 136.213 41.3824 136.201C41.3824 136.189 41.3824 136.177 41.3824 136.165C41.3824 136.153 41.3824 136.141 41.3824 136.129C41.3824 136.117 41.3824 136.105 41.3824 136.093C41.3824 136.081 41.3824 136.069 41.3824 136.057C41.3824 136.045 41.3824 136.033 41.3824 136.021C41.3824 136.009 41.3824 135.997 41.3824 135.985C41.3824 135.972 41.3824 135.96 41.3824 135.948C41.3824 135.936 41.3824 135.924 41.3824 135.911C41.3824 135.899 41.3824 135.887 41.3824 135.875C41.3824 135.862 41.3824 135.85 41.3824 135.838C41.3824 135.825 41.3824 135.813 41.3824 135.8C41.3824 135.788 41.3824 135.776 41.3824 135.763C41.3824 135.751 41.3824 135.738 41.3824 135.726C41.3824 135.713 41.3824 135.701 41.3824 135.688C41.3824 135.676 41.3824 135.663 41.3824 135.65C41.3824 135.638 41.3824 135.625 41.3824 135.613C41.3824 135.6 41.3824 135.587 41.3824 135.575C41.3824 135.562 41.3824 135.549 41.3824 135.536C41.3824 135.524 41.3824 135.511 41.3824 135.498C41.3824 135.485 41.3824 135.472 41.3824 135.459C41.3824 135.447 41.3824 135.434 41.3824 135.421C41.3824 135.408 41.3824 135.395 41.3824 135.382C41.3824 135.369 41.3824 135.356 41.3824 135.343C41.3824 135.33 41.3824 135.317 41.3824 135.304C41.3824 135.291 41.3824 135.278 41.3824 135.265C41.3824 135.252 41.3824 135.239 41.3824 135.225C41.3824 135.212 41.3824 135.199 41.3824 135.186C41.3824 135.173 41.3824 135.159 41.3824 135.146C41.3824 135.133 41.3824 135.12 41.3824 135.106C41.3824 135.093 41.3824 135.08 41.3824 135.066H38.3824ZM39.8824 140.5H10.0656V143.5H39.8824V140.5ZM10.0656 142C11.497 141.552 11.5472 141.766 11.5655 141.985C11.5655 141.985 11.5655 141.986 11.5655 141.986C11.5655 141.986 11.5655 141.986 11.5655 141.986C11.5655 141.986 11.5655 141.986 11.5655 141.986C11.5655 141.986 11.5655 141.986 11.5655 141.986C11.5655 141.985 11.5655 141.985 11.5655 141.984C11.5655 141.982 11.5654 141.979 11.5654 141.972C11.5652 141.959 11.565 141.932 11.5645 141.877C11.5635 141.769 11.5614 141.552 11.5573 141.119C11.5491 140.252 11.5328 138.519 11.5 135.052L8.50014 135.08C8.53289 138.547 8.54926 140.281 8.55745 141.147C8.56154 141.581 8.56359 141.797 8.56461 141.906C8.56512 141.96 8.56538 141.987 8.56551 142.001C8.56557 142.007 8.5656 142.011 8.56562 142.012C8.56563 142.013 8.56563 142.014 8.56563 142.014C8.56563 142.014 8.56563 142.014 8.56563 142.014C8.56563 142.014 8.56563 142.014 8.56564 142.014C8.56564 142.014 8.56564 142.014 8.56564 142.014C8.56564 142.014 8.56564 142.015 8.56564 142.015C8.58393 142.234 8.63415 142.448 10.0656 142ZM11.5 135.052C11.4992 134.968 11.5372 134.712 11.7854 134.234C12.0238 133.775 12.4027 133.214 12.9368 132.554C14.0046 131.233 15.581 129.65 17.5602 127.873C21.5108 124.325 26.9092 120.142 32.6396 115.937C38.3627 111.737 44.3842 107.538 49.5675 103.961C54.7344 100.395 59.1001 97.4246 61.4612 95.7149L59.7017 93.2851C57.3773 94.9682 53.0694 97.8987 47.8635 101.492C42.6741 105.073 36.6237 109.292 30.8646 113.518C25.1128 117.739 19.6188 121.992 15.5558 125.641C13.5281 127.462 11.8174 129.167 10.6039 130.668C9.9973 131.418 9.48695 132.151 9.12341 132.851C8.7696 133.532 8.49275 134.297 8.50014 135.08L11.5 135.052ZM61.4612 95.7149C63.774 94.0401 67.9702 91.3758 73.1056 87.9515C78.2001 84.5545 84.1358 80.4627 89.7865 76.0194C95.4284 71.583 100.836 66.7577 104.846 61.8851C108.822 57.054 111.609 51.9558 111.609 47H108.609C108.609 50.8908 106.376 55.3051 102.53 59.9787C98.7177 64.6108 93.5007 69.2824 87.9321 73.6612C82.3723 78.033 76.5117 82.0746 71.4413 85.4555C66.4118 88.8091 62.0743 91.567 59.7017 93.2851L61.4612 95.7149ZM110.109 48.5H140V45.5H110.109V48.5Z" fill="black"/>
<path d="M89.8862 47C90.0321 64.7019 39.9496 80.9854 39.9496 94.5C39.9496 108.015 140 121.495 140 135.066C140 141.852 140 142 140 142H109.883C109.883 142 110.114 142 109.794 135.066C109.474 128.132 10 114.8 10 94.5C10 74.1997 60.7878 64.7019 60.5069 47C60.5069 47 70.3 47 89.8862 47Z" fill="white" stroke="black" stroke-width="3.09038" stroke-linecap="round" stroke-linejoin="round"/>
<path d="M39.9496 47.0309C39.9496 58.9089 140 74.2369 140 94.5154C140 114.794 89.8862 128.197 89.8862 135.068C89.8862 141.94 89.8862 142 89.8862 142H60.5955C60.5955 142 60.5069 142 60.5955 135.068C60.6841 128.137 109.883 114.794 109.883 94.5154C109.883 74.2369 10 70.6453 10 47.0309C10 47.0309 19.9363 46.9614 39.9496 47.0309Z" fill="white" stroke="black" stroke-width="3" stroke-linecap="round" stroke-linejoin="round"/>
<path d="M61.5 94C72 87.5 110.643 64.5155 110.643 47H140C139.712 64.5155 96.5 90 90.5 94" fill="white"/>
<path d="M61.5 94C72 87.5 110.643 64.5155 110.643 47H140C139.712 64.5155 96.5 90 90.5 94" stroke="black" stroke-width="3" stroke-linecap="square" stroke-linejoin="round"/>
<path d="M110 26.6111C110 18.6643 119.524 4 126.667 4C126.667 12.7678 140 19.8316 140 26.6111C140 33.3906 135.871 41 126.667 41C117.462 41 110 34.5579 110 26.6111V26.6111Z" fill="white" stroke="black" stroke-width="2.7"/>
<path d="M60 26.6111C60 18.6643 69.5238 4 76.6667 4C76.6667 12.7678 90 19.8316 90 26.6111C90 33.3906 85.8714 41 76.6667 41C67.4619 41 60 34.5579 60 26.6111Z" fill="white" stroke="black" stroke-width="3"/>
<path d="M10 26.6111C10 18.6643 19.5238 4 26.6667 4C26.6667 12.7678 40 19.8316 40 26.6111C40 33.3906 35.8714 41 26.6667 41C17.4619 41 10 34.5579 10 26.6111Z" fill="white" stroke="black" stroke-width="3"/>
<path d="M93 91.5C86.5 95 85.5 96.5 84.5 97.5" stroke="black"/>
</svg>
