<svg id="et5Ym7I8xgG1" xmlns="http://www.w3.org/2000/svg" xmlns:xlink="http://www.w3.org/1999/xlink"
  viewBox="0 0 150 200" shape-rendering="geometricPrecision" text-rendering="geometricPrecision">
  <path
    d="M200.394125,-3.828902c-.295192,26.074106-39.911422,60-50,70s-50.04945,49.698052-50.04945,59.781834s0,10.218166,0,10.218166-29.796529,0-29.796529,0s0,0-.065443-10.218166s41.18237-49.781834,50.546896-59.781834s49.493852-43.925894,49.493852-70v0Z"
    transform="translate(-60.394125 53.828902)" fill="#feff67" stroke="#000" stroke-width="7" stroke-linejoin="round" />
  <path
    d="M52.900554,-3.707876c.137427,26.086956-47.034642,50.083782-47.034642,70s94.23623,39.781834,94.23623,59.781834c0,10.000161,0,10.218166,0,10.218166h-28.367127c0,0,.21813,0-.083473-10.218166s-93.994828-29.865616-93.994828-59.781834s47.836445-43.913044,47.571818-70q0,0,27.672022,0Z"
    transform="matrix(1.061163 0 0 1 33.775311 53.707876)" fill="#feff67" stroke="#000" stroke-width="7"
    stroke-linejoin="round" />
  <path
    d="M51.641396,-3.739991c0,17.51015,99.999998,40.106121,99.999998,70s-50.088576,49.651993-50.088576,59.781834s0,10.218166,0,10.218166-29.275948,0-29.275948,0-.088578,0,0-10.218166s49.26238-29.887954,49.26238-59.781834-99.832411-35.188493-99.832411-70c0,0,9.931313-.102362,29.934557,0Z"
    transform="translate(-11.641396 53.739991)" fill="#ff6" stroke="#000" stroke-width="7" stroke-linejoin="round" />
  <path
    d="M119.062932,65.469939c9.453104-10,49.493852-43.913043,49.493852-70v0h29.870674c-.292973,26.086957-39.911422,60-49.911422,70"
    transform="translate(-58.516036 54.530061)" fill="#feff67" stroke="#000" stroke-width="7" stroke-linecap="square"
    stroke-linejoin="round" />
  <path
    d="M-37.622858,25.494776c0-9.545661,10.582011-27.160493,18.518519-27.160493c0,10.531876,14.814814,19.016943,14.814814,27.160493s-4.58732,17.283951-14.814814,17.283951-18.518519-7.738288-18.518519-17.283951Z"
    transform="matrix(.9 0 0 0.9 143.860572 6.499145)" fill="#feff67" stroke="#000" stroke-width="7" />
  <path
    d="M-37.622858,22.778727c0-8.591095,9.52381-24.444444,16.666667-24.444444c0,9.478688,13.333333,17.115249,13.333333,24.444444s-4.128588,15.555556-13.333333,15.555556-16.666667-6.96446-16.666667-15.555556Z"
    transform="translate(97.622858 6.665717)" fill="#feff67" stroke="#000" stroke-width="7" />
  <path
    d="M-37.622858,22.778727c0-8.591095,9.52381-24.444444,16.666667-24.444444c0,9.478688,13.333333,17.115249,13.333333,24.444444s-4.128588,15.555556-13.333333,15.555556-16.666667-6.96446-16.666667-15.555556Z"
    transform="translate(47.622858 6.665717)" fill="#feff67" stroke="#000" stroke-width="7" />
</svg>