<svg width="22" height="23" viewBox="0 0 22 23" fill="none" xmlns="http://www.w3.org/2000/svg">
<path d="M12.6661 7.10869L14.6321 5.14169C14.3995 4.90917 14.2278 4.62287 14.1323 4.30816C14.0368 3.99344 14.0203 3.66003 14.0844 3.33745C14.1485 3.01486 14.2912 2.71307 14.4998 2.45879C14.7084 2.20451 14.9765 2.0056 15.2803 1.87967C15.5841 1.75375 15.9143 1.70469 16.2416 1.73685C16.5689 1.76901 16.8833 1.88139 17.1568 2.06405C17.4303 2.2467 17.6545 2.49398 17.8097 2.784C17.9648 3.07401 18.046 3.3978 18.0461 3.72669C18.375 3.72646 18.699 3.80738 18.9892 3.96228C19.2794 4.11718 19.527 4.34128 19.7099 4.61472C19.8928 4.88817 20.0054 5.2025 20.0378 5.52988C20.0702 5.85726 20.0213 6.18757 19.8955 6.49154C19.7697 6.79551 19.5708 7.06375 19.3166 7.27249C19.0623 7.48124 18.7605 7.62404 18.4378 7.68824C18.1152 7.75244 17.7817 7.73606 17.4668 7.64055C17.152 7.54504 16.8657 7.37335 16.6331 7.14069L14.8131 8.96169" stroke="#FFBC42" stroke-width="2" stroke-linecap="round" stroke-linejoin="round"/>
<path d="M4.94974 17.323C7.68341 20.0567 10.8492 21.323 12.0208 20.1514C13.1924 18.9799 11.9261 15.814 9.19238 13.0804C6.45871 10.3467 3.29289 9.08036 2.12132 10.2519C0.949745 11.4235 2.21607 14.5893 4.94974 17.323Z" stroke="#FFBC42" stroke-width="2" stroke-linecap="round" stroke-linejoin="round"/>
<path d="M12.0211 20.1517C15.9261 16.2457 16.8761 10.8637 14.1421 8.13068C11.4091 5.39668 6.02707 6.34668 2.12207 10.2517M6.54607 14.7267L7.54607 15.7267L6.54607 14.7267Z" stroke="#FFBC42" stroke-width="2" stroke-linecap="round" stroke-linejoin="round"/>
</svg>
